<mxfile host="Electron" agent="Mozilla/5.0 (Windows NT 10.0; Win64; x64) AppleWebKit/537.36 (KHTML, like Gecko) draw.io/24.7.8 Chrome/128.0.6613.36 Electron/32.0.1 Safari/537.36" version="24.7.8">
  <diagram name="Page-1" id="N7WYF0mlktX7pjHwl--7">
    <mxGraphModel dx="1235" dy="731" grid="1" gridSize="10" guides="1" tooltips="1" connect="1" arrows="1" fold="1" page="1" pageScale="1" pageWidth="1920" pageHeight="1200" math="0" shadow="0">
      <root>
        <mxCell id="0" />
        <mxCell id="1" parent="0" />
        <mxCell id="7Yrhw28wjAoryeQIRP0u-11" value="&lt;font color=&quot;#000000&quot; style=&quot;font-size: 15px;&quot;&gt;&lt;b&gt;Silver_Layer&lt;/b&gt;&lt;/font&gt;" style="rounded=1;whiteSpace=wrap;html=1;arcSize=20;strokeColor=#969696;fillColor=#969696;" parent="1" vertex="1">
          <mxGeometry x="630" y="180" width="200" height="50" as="geometry" />
        </mxCell>
        <mxCell id="7Yrhw28wjAoryeQIRP0u-12" value="" style="rounded=1;whiteSpace=wrap;html=1;arcSize=4;strokeColor=#969696;" parent="1" vertex="1">
          <mxGeometry x="630" y="240" width="200" height="520" as="geometry" />
        </mxCell>
        <mxCell id="7Yrhw28wjAoryeQIRP0u-14" value="&lt;font color=&quot;#000000&quot; style=&quot;font-size: 15px;&quot;&gt;&lt;b&gt;Gold_Layer&lt;/b&gt;&lt;/font&gt;" style="rounded=1;whiteSpace=wrap;html=1;arcSize=20;strokeColor=#D9AC16;fillColor=#D9AC16;" parent="1" vertex="1">
          <mxGeometry x="920" y="180" width="200" height="50" as="geometry" />
        </mxCell>
        <mxCell id="7Yrhw28wjAoryeQIRP0u-15" value="" style="rounded=1;whiteSpace=wrap;html=1;arcSize=4;strokeColor=#e6de00;" parent="1" vertex="1">
          <mxGeometry x="920" y="240" width="200" height="520" as="geometry" />
        </mxCell>
        <mxCell id="7Yrhw28wjAoryeQIRP0u-17" value="" style="rounded=1;whiteSpace=wrap;html=1;dashed=1;container=0;movable=1;resizable=1;rotatable=1;deletable=1;editable=1;locked=0;connectable=1;" parent="1" vertex="1">
          <mxGeometry x="50" y="245" width="210" height="545" as="geometry" />
        </mxCell>
        <mxCell id="7Yrhw28wjAoryeQIRP0u-18" value="" style="group;movable=1;resizable=1;rotatable=1;deletable=1;editable=1;locked=0;connectable=1;" parent="1" vertex="1" connectable="0">
          <mxGeometry x="118.24" y="330" width="62.79" height="65" as="geometry" />
        </mxCell>
        <mxCell id="7Yrhw28wjAoryeQIRP0u-19" value="" style="sketch=0;pointerEvents=1;shadow=0;dashed=0;html=1;strokeColor=none;fillColor=#505050;labelPosition=center;verticalLabelPosition=bottom;verticalAlign=top;outlineConnect=0;align=center;shape=mxgraph.office.concepts.folder_open;movable=1;resizable=1;rotatable=1;deletable=1;editable=1;locked=0;connectable=1;" parent="7Yrhw28wjAoryeQIRP0u-18" vertex="1">
          <mxGeometry width="62.78999999999998" height="48.21459375539069" as="geometry" />
        </mxCell>
        <mxCell id="7Yrhw28wjAoryeQIRP0u-20" value="" style="image;aspect=fixed;html=1;points=[];align=center;fontSize=12;image=img/lib/azure2/general/File.svg;movable=1;resizable=1;rotatable=1;deletable=1;editable=1;locked=0;connectable=1;" parent="7Yrhw28wjAoryeQIRP0u-18" vertex="1">
          <mxGeometry x="37.337625" y="33.638088666551646" width="25.451662293522496" height="31.360484332591373" as="geometry" />
        </mxCell>
        <mxCell id="7Yrhw28wjAoryeQIRP0u-21" value="&lt;font size=&quot;1&quot; style=&quot;&quot;&gt;&lt;b style=&quot;font-size: 15px;&quot;&gt;ERP System&lt;/b&gt;&lt;/font&gt;" style="rounded=1;whiteSpace=wrap;html=1;strokeColor=none;gradientColor=default;fillColor=none;movable=1;resizable=1;rotatable=1;deletable=1;editable=1;locked=0;connectable=1;" parent="1" vertex="1">
          <mxGeometry x="98.64" y="395" width="100" height="40" as="geometry" />
        </mxCell>
        <mxCell id="7Yrhw28wjAoryeQIRP0u-22" value="&lt;font size=&quot;1&quot; style=&quot;&quot;&gt;&lt;b style=&quot;font-size: 15px;&quot;&gt;CRM System&lt;/b&gt;&lt;/font&gt;" style="rounded=1;whiteSpace=wrap;html=1;strokeColor=none;gradientColor=default;fillColor=none;movable=1;resizable=1;rotatable=1;deletable=1;editable=1;locked=0;connectable=1;" parent="1" vertex="1">
          <mxGeometry x="98.63999999999999" y="640" width="100" height="40" as="geometry" />
        </mxCell>
        <mxCell id="7Yrhw28wjAoryeQIRP0u-28" value="&lt;b&gt;&lt;font style=&quot;font-size: 20px;&quot;&gt;Source&lt;/font&gt;&lt;/b&gt;" style="text;html=1;align=center;verticalAlign=middle;resizable=1;points=[];autosize=1;strokeColor=none;fillColor=default;movable=1;rotatable=1;deletable=1;editable=1;locked=0;connectable=1;" parent="1" vertex="1">
          <mxGeometry x="104.63999999999999" y="220" width="90" height="40" as="geometry" />
        </mxCell>
        <mxCell id="7Yrhw28wjAoryeQIRP0u-40" value="" style="group;movable=1;resizable=1;rotatable=1;deletable=1;editable=1;locked=0;connectable=1;" parent="1" vertex="1" connectable="0">
          <mxGeometry x="117.24000000000001" y="575" width="62.79" height="65" as="geometry" />
        </mxCell>
        <mxCell id="7Yrhw28wjAoryeQIRP0u-41" value="" style="sketch=0;pointerEvents=1;shadow=0;dashed=0;html=1;strokeColor=none;fillColor=#505050;labelPosition=center;verticalLabelPosition=bottom;verticalAlign=top;outlineConnect=0;align=center;shape=mxgraph.office.concepts.folder_open;movable=1;resizable=1;rotatable=1;deletable=1;editable=1;locked=0;connectable=1;" parent="7Yrhw28wjAoryeQIRP0u-40" vertex="1">
          <mxGeometry width="62.78999999999998" height="48.21459375539069" as="geometry" />
        </mxCell>
        <mxCell id="7Yrhw28wjAoryeQIRP0u-42" value="" style="image;aspect=fixed;html=1;points=[];align=center;fontSize=12;image=img/lib/azure2/general/File.svg;movable=1;resizable=1;rotatable=1;deletable=1;editable=1;locked=0;connectable=1;" parent="7Yrhw28wjAoryeQIRP0u-40" vertex="1">
          <mxGeometry x="37.337625" y="33.638088666551646" width="25.451662293522496" height="31.360484332591373" as="geometry" />
        </mxCell>
        <mxCell id="7Yrhw28wjAoryeQIRP0u-3" value="&lt;font color=&quot;#000000&quot; style=&quot;font-size: 15px;&quot;&gt;&lt;b&gt;Bronze_Layer&lt;/b&gt;&lt;/font&gt;" style="rounded=1;whiteSpace=wrap;html=1;arcSize=20;strokeColor=#CC6600;fillColor=#EB8900;" parent="1" vertex="1">
          <mxGeometry x="350" y="180" width="200" height="50" as="geometry" />
        </mxCell>
        <mxCell id="7Yrhw28wjAoryeQIRP0u-4" value="" style="rounded=1;whiteSpace=wrap;html=1;arcSize=4;fillColor=none;fontColor=#000000;strokeColor=#CC6600;gradientColor=none;" parent="1" vertex="1">
          <mxGeometry x="350" y="240" width="200" height="520" as="geometry" />
        </mxCell>
        <mxCell id="7Yrhw28wjAoryeQIRP0u-66" style="edgeStyle=orthogonalEdgeStyle;rounded=0;orthogonalLoop=1;jettySize=auto;html=1;strokeWidth=2;dashed=1;flowAnimation=1;shadow=1;" parent="1" source="7Yrhw28wjAoryeQIRP0u-43" target="7Yrhw28wjAoryeQIRP0u-49" edge="1">
          <mxGeometry relative="1" as="geometry" />
        </mxCell>
        <mxCell id="7Yrhw28wjAoryeQIRP0u-43" value="&lt;b&gt;&lt;font style=&quot;font-size: 15px;&quot; color=&quot;#000000&quot;&gt;crm_sales_details&lt;/font&gt;&lt;/b&gt;" style="rounded=1;whiteSpace=wrap;html=1;fillColor=#C07B39;" parent="1" vertex="1">
          <mxGeometry x="360" y="270" width="180" height="50" as="geometry" />
        </mxCell>
        <mxCell id="7Yrhw28wjAoryeQIRP0u-67" style="edgeStyle=orthogonalEdgeStyle;rounded=0;orthogonalLoop=1;jettySize=auto;html=1;strokeWidth=2;dashed=1;flowAnimation=1;shadow=1;" parent="1" source="7Yrhw28wjAoryeQIRP0u-44" target="7Yrhw28wjAoryeQIRP0u-50" edge="1">
          <mxGeometry relative="1" as="geometry" />
        </mxCell>
        <mxCell id="7Yrhw28wjAoryeQIRP0u-44" value="&lt;b&gt;&lt;font color=&quot;#000000&quot; style=&quot;font-size: 15px;&quot;&gt;crm_cust_info&lt;/font&gt;&lt;/b&gt;" style="rounded=1;whiteSpace=wrap;html=1;strokeColor=default;align=center;verticalAlign=middle;fontFamily=Helvetica;fontSize=12;fontColor=default;fillColor=#C07B39;" parent="1" vertex="1">
          <mxGeometry x="360" y="350" width="180" height="50" as="geometry" />
        </mxCell>
        <mxCell id="7Yrhw28wjAoryeQIRP0u-68" style="edgeStyle=orthogonalEdgeStyle;rounded=0;orthogonalLoop=1;jettySize=auto;html=1;strokeWidth=2;dashed=1;flowAnimation=1;shadow=1;" parent="1" source="7Yrhw28wjAoryeQIRP0u-45" target="7Yrhw28wjAoryeQIRP0u-51" edge="1">
          <mxGeometry relative="1" as="geometry" />
        </mxCell>
        <mxCell id="7Yrhw28wjAoryeQIRP0u-45" value="&lt;b&gt;&lt;font color=&quot;#000000&quot; style=&quot;font-size: 15px;&quot;&gt;crm_prd_info&lt;/font&gt;&lt;/b&gt;" style="rounded=1;whiteSpace=wrap;html=1;fillColor=#C07B39;" parent="1" vertex="1">
          <mxGeometry x="360" y="430" width="180" height="50" as="geometry" />
        </mxCell>
        <mxCell id="7Yrhw28wjAoryeQIRP0u-69" style="edgeStyle=orthogonalEdgeStyle;rounded=0;orthogonalLoop=1;jettySize=auto;html=1;strokeWidth=2;dashed=1;flowAnimation=1;shadow=1;" parent="1" source="7Yrhw28wjAoryeQIRP0u-46" target="7Yrhw28wjAoryeQIRP0u-52" edge="1">
          <mxGeometry relative="1" as="geometry" />
        </mxCell>
        <mxCell id="7Yrhw28wjAoryeQIRP0u-46" value="&lt;font color=&quot;#000000&quot; style=&quot;font-size: 15px;&quot;&gt;&lt;b&gt;erp_cust_az12&lt;/b&gt;&lt;/font&gt;" style="rounded=1;whiteSpace=wrap;html=1;fillColor=#C07B39;" parent="1" vertex="1">
          <mxGeometry x="360" y="525" width="180" height="50" as="geometry" />
        </mxCell>
        <mxCell id="7Yrhw28wjAoryeQIRP0u-70" style="edgeStyle=orthogonalEdgeStyle;rounded=0;orthogonalLoop=1;jettySize=auto;html=1;entryX=0;entryY=0.5;entryDx=0;entryDy=0;strokeWidth=2;dashed=1;flowAnimation=1;shadow=1;" parent="1" source="7Yrhw28wjAoryeQIRP0u-47" target="7Yrhw28wjAoryeQIRP0u-53" edge="1">
          <mxGeometry relative="1" as="geometry" />
        </mxCell>
        <mxCell id="7Yrhw28wjAoryeQIRP0u-47" value="&lt;font color=&quot;#000000&quot; style=&quot;font-size: 15px;&quot;&gt;erp_loc_a101&lt;/font&gt;" style="rounded=1;whiteSpace=wrap;html=1;fillColor=#C07B39;" parent="1" vertex="1">
          <mxGeometry x="360" y="600" width="180" height="50" as="geometry" />
        </mxCell>
        <mxCell id="7Yrhw28wjAoryeQIRP0u-71" style="edgeStyle=orthogonalEdgeStyle;rounded=0;orthogonalLoop=1;jettySize=auto;html=1;entryX=0;entryY=0.5;entryDx=0;entryDy=0;strokeWidth=2;dashed=1;flowAnimation=1;shadow=1;" parent="1" source="7Yrhw28wjAoryeQIRP0u-48" target="7Yrhw28wjAoryeQIRP0u-54" edge="1">
          <mxGeometry relative="1" as="geometry" />
        </mxCell>
        <mxCell id="7Yrhw28wjAoryeQIRP0u-48" value="&lt;b&gt;&lt;font color=&quot;#000000&quot;&gt;erp_px_cat_g1v2&lt;/font&gt;&lt;/b&gt;" style="rounded=1;whiteSpace=wrap;html=1;fillColor=#C07B39;" parent="1" vertex="1">
          <mxGeometry x="360" y="680" width="180" height="50" as="geometry" />
        </mxCell>
        <mxCell id="7Yrhw28wjAoryeQIRP0u-91" style="edgeStyle=orthogonalEdgeStyle;rounded=0;orthogonalLoop=1;jettySize=auto;html=1;exitX=1;exitY=0.5;exitDx=0;exitDy=0;entryX=0;entryY=0.5;entryDx=0;entryDy=0;" parent="1" source="7Yrhw28wjAoryeQIRP0u-49" target="7Yrhw28wjAoryeQIRP0u-55" edge="1">
          <mxGeometry relative="1" as="geometry" />
        </mxCell>
        <mxCell id="7Yrhw28wjAoryeQIRP0u-49" value="crm_sales_details" style="rounded=1;whiteSpace=wrap;html=1;" parent="1" vertex="1">
          <mxGeometry x="640" y="270" width="180" height="50" as="geometry" />
        </mxCell>
        <mxCell id="7Yrhw28wjAoryeQIRP0u-50" value="crm_cust_info" style="rounded=1;whiteSpace=wrap;html=1;" parent="1" vertex="1">
          <mxGeometry x="640" y="350" width="180" height="50" as="geometry" />
        </mxCell>
        <mxCell id="7Yrhw28wjAoryeQIRP0u-51" value="crm_prd_info" style="rounded=1;whiteSpace=wrap;html=1;" parent="1" vertex="1">
          <mxGeometry x="640" y="430" width="180" height="50" as="geometry" />
        </mxCell>
        <mxCell id="7Yrhw28wjAoryeQIRP0u-52" value="erp_cust_az12" style="rounded=1;whiteSpace=wrap;html=1;" parent="1" vertex="1">
          <mxGeometry x="640" y="525" width="180" height="50" as="geometry" />
        </mxCell>
        <mxCell id="7Yrhw28wjAoryeQIRP0u-53" value="erp_loc_a101" style="rounded=1;whiteSpace=wrap;html=1;" parent="1" vertex="1">
          <mxGeometry x="640" y="600" width="180" height="50" as="geometry" />
        </mxCell>
        <mxCell id="7Yrhw28wjAoryeQIRP0u-92" style="edgeStyle=orthogonalEdgeStyle;rounded=0;orthogonalLoop=1;jettySize=auto;html=1;exitX=1;exitY=0.5;exitDx=0;exitDy=0;entryX=0;entryY=0.5;entryDx=0;entryDy=0;" parent="1" source="7Yrhw28wjAoryeQIRP0u-54" target="7Yrhw28wjAoryeQIRP0u-59" edge="1">
          <mxGeometry relative="1" as="geometry" />
        </mxCell>
        <mxCell id="7Yrhw28wjAoryeQIRP0u-54" value="erp_px_cat_g1v2" style="rounded=1;whiteSpace=wrap;html=1;" parent="1" vertex="1">
          <mxGeometry x="640" y="680" width="180" height="50" as="geometry" />
        </mxCell>
        <mxCell id="7Yrhw28wjAoryeQIRP0u-55" value="fact_sales" style="rounded=1;whiteSpace=wrap;html=1;" parent="1" vertex="1">
          <mxGeometry x="930" y="345" width="180" height="50" as="geometry" />
        </mxCell>
        <mxCell id="7Yrhw28wjAoryeQIRP0u-56" value="dim_customers" style="rounded=1;whiteSpace=wrap;html=1;" parent="1" vertex="1">
          <mxGeometry x="930" y="540" width="180" height="50" as="geometry" />
        </mxCell>
        <mxCell id="7Yrhw28wjAoryeQIRP0u-59" value="dim_products" style="rounded=1;whiteSpace=wrap;html=1;" parent="1" vertex="1">
          <mxGeometry x="930" y="620" width="180" height="50" as="geometry" />
        </mxCell>
        <mxCell id="7Yrhw28wjAoryeQIRP0u-60" style="edgeStyle=orthogonalEdgeStyle;rounded=0;orthogonalLoop=1;jettySize=auto;html=1;entryX=0;entryY=0.5;entryDx=0;entryDy=0;strokeWidth=2;dashed=1;flowAnimation=1;" parent="1" source="7Yrhw28wjAoryeQIRP0u-20" target="7Yrhw28wjAoryeQIRP0u-43" edge="1">
          <mxGeometry relative="1" as="geometry" />
        </mxCell>
        <mxCell id="7Yrhw28wjAoryeQIRP0u-61" style="edgeStyle=orthogonalEdgeStyle;rounded=0;orthogonalLoop=1;jettySize=auto;html=1;entryX=-0.005;entryY=0.269;entryDx=0;entryDy=0;entryPerimeter=0;exitX=1.038;exitY=0.49;exitDx=0;exitDy=0;exitPerimeter=0;strokeWidth=2;dashed=1;flowAnimation=1;" parent="1" source="7Yrhw28wjAoryeQIRP0u-20" target="7Yrhw28wjAoryeQIRP0u-4" edge="1">
          <mxGeometry relative="1" as="geometry" />
        </mxCell>
        <mxCell id="7Yrhw28wjAoryeQIRP0u-62" style="edgeStyle=orthogonalEdgeStyle;rounded=0;orthogonalLoop=1;jettySize=auto;html=1;entryX=0;entryY=0.5;entryDx=0;entryDy=0;strokeWidth=2;dashed=1;flowAnimation=1;" parent="1" source="7Yrhw28wjAoryeQIRP0u-20" target="7Yrhw28wjAoryeQIRP0u-45" edge="1">
          <mxGeometry relative="1" as="geometry" />
        </mxCell>
        <mxCell id="7Yrhw28wjAoryeQIRP0u-63" style="edgeStyle=orthogonalEdgeStyle;rounded=0;orthogonalLoop=1;jettySize=auto;html=1;entryX=0;entryY=0.5;entryDx=0;entryDy=0;strokeWidth=2;dashed=1;flowAnimation=1;" parent="1" source="7Yrhw28wjAoryeQIRP0u-42" target="7Yrhw28wjAoryeQIRP0u-46" edge="1">
          <mxGeometry relative="1" as="geometry" />
        </mxCell>
        <mxCell id="7Yrhw28wjAoryeQIRP0u-64" style="edgeStyle=orthogonalEdgeStyle;rounded=0;orthogonalLoop=1;jettySize=auto;html=1;strokeWidth=2;dashed=1;flowAnimation=1;" parent="1" source="7Yrhw28wjAoryeQIRP0u-42" target="7Yrhw28wjAoryeQIRP0u-47" edge="1">
          <mxGeometry relative="1" as="geometry" />
        </mxCell>
        <mxCell id="7Yrhw28wjAoryeQIRP0u-65" style="edgeStyle=orthogonalEdgeStyle;rounded=0;orthogonalLoop=1;jettySize=auto;html=1;entryX=0;entryY=0.5;entryDx=0;entryDy=0;strokeWidth=2;dashed=1;flowAnimation=1;" parent="1" source="7Yrhw28wjAoryeQIRP0u-42" target="7Yrhw28wjAoryeQIRP0u-48" edge="1">
          <mxGeometry relative="1" as="geometry" />
        </mxCell>
        <mxCell id="7Yrhw28wjAoryeQIRP0u-86" value="" style="endArrow=classic;html=1;rounded=0;exitX=1;exitY=0.5;exitDx=0;exitDy=0;entryX=0;entryY=0.5;entryDx=0;entryDy=0;jumpStyle=gap;" parent="1" source="7Yrhw28wjAoryeQIRP0u-52" target="7Yrhw28wjAoryeQIRP0u-56" edge="1">
          <mxGeometry width="50" height="50" relative="1" as="geometry">
            <mxPoint x="810" y="563" as="sourcePoint" />
            <mxPoint x="920" y="638" as="targetPoint" />
          </mxGeometry>
        </mxCell>
        <mxCell id="7Yrhw28wjAoryeQIRP0u-87" value="" style="endArrow=classic;html=1;rounded=0;entryX=0;entryY=0.5;entryDx=0;entryDy=0;" parent="1" target="7Yrhw28wjAoryeQIRP0u-56" edge="1">
          <mxGeometry width="50" height="50" relative="1" as="geometry">
            <mxPoint x="820" y="380" as="sourcePoint" />
            <mxPoint x="900" y="520" as="targetPoint" />
          </mxGeometry>
        </mxCell>
        <mxCell id="7Yrhw28wjAoryeQIRP0u-88" value="" style="endArrow=classic;html=1;rounded=0;exitX=1;exitY=0.5;exitDx=0;exitDy=0;entryX=0;entryY=0.5;entryDx=0;entryDy=0;jumpStyle=gap;jumpSize=12;" parent="1" source="7Yrhw28wjAoryeQIRP0u-51" target="7Yrhw28wjAoryeQIRP0u-59" edge="1">
          <mxGeometry width="50" height="50" relative="1" as="geometry">
            <mxPoint x="870" y="417.5" as="sourcePoint" />
            <mxPoint x="980" y="492.5" as="targetPoint" />
          </mxGeometry>
        </mxCell>
        <mxCell id="7Yrhw28wjAoryeQIRP0u-89" value="" style="endArrow=classic;html=1;rounded=0;exitX=1;exitY=0.5;exitDx=0;exitDy=0;entryX=0;entryY=0.5;entryDx=0;entryDy=0;jumpStyle=gap;jumpSize=9;" parent="1" source="7Yrhw28wjAoryeQIRP0u-53" target="7Yrhw28wjAoryeQIRP0u-56" edge="1">
          <mxGeometry width="50" height="50" relative="1" as="geometry">
            <mxPoint x="830" y="635" as="sourcePoint" />
            <mxPoint x="940" y="650" as="targetPoint" />
          </mxGeometry>
        </mxCell>
      </root>
    </mxGraphModel>
  </diagram>
</mxfile>
